<svg width="19" height="20" viewBox="0 0 19 20" fill="none" xmlns="http://www.w3.org/2000/svg">
<path fill-rule="evenodd" clip-rule="evenodd" d="M9.5 1.42857C8.53094 1.42857 7.60157 1.80485 6.91634 2.47462C6.23111 3.14439 5.84615 4.0528 5.84615 5V5.71429H13.1538V5C13.1538 4.0528 12.7689 3.14439 12.0837 2.47462C11.3984 1.80485 10.4691 1.42857 9.5 1.42857ZM4.38462 5V5.71429H1.46154C1.07391 5.71429 0.702166 5.8648 0.428075 6.13271C0.153984 6.40061 0 6.76398 0 7.14286V16.7857C0 18.5302 1.50372 20 3.28846 20H15.7115C17.4747 20 19 18.6068 19 16.8415V7.14286C19 6.76398 18.846 6.40061 18.5719 6.13271C18.2978 5.8648 17.9261 5.71429 17.5385 5.71429H14.6154V5C14.6154 3.67392 14.0764 2.40215 13.1171 1.46447C12.1578 0.526784 10.8567 0 9.5 0C8.14332 0 6.8422 0.526784 5.88288 1.46447C4.92356 2.40215 4.38462 3.67392 4.38462 5ZM1.46154 7.14286H5.11538H13.8846H17.5385V16.8415C17.5385 17.7763 16.7107 18.5714 15.7115 18.5714H3.28846C2.3109 18.5714 1.46154 17.7412 1.46154 16.7857L1.46154 7.14286ZM5.84615 9.21428C5.84615 8.8198 5.51898 8.5 5.11538 8.5C4.71179 8.5 4.38462 8.8198 4.38462 9.21428V9.92857C4.38462 11.2547 4.92356 12.5264 5.88288 13.4641C6.8422 14.4018 8.14332 14.9286 9.5 14.9286C10.8567 14.9286 12.1578 14.4018 13.1171 13.4641C14.0764 12.5264 14.6154 11.2547 14.6154 9.92857V9.21428C14.6154 8.8198 14.2882 8.5 13.8846 8.5C13.481 8.5 13.1538 8.8198 13.1538 9.21428V9.92857C13.1538 10.8758 12.7689 11.7842 12.0837 12.454C11.3984 13.1237 10.4691 13.5 9.5 13.5C8.53094 13.5 7.60157 13.1237 6.91634 12.454C6.23111 11.7842 5.84615 10.8758 5.84615 9.92857V9.21428Z" fill="black"/>
</svg>
