<svg width="20" height="20" viewBox="0 0 20 20" fill="none" xmlns="http://www.w3.org/2000/svg">
<path d="M15.6861 8.6597C15.6861 4.62472 12.4715 1.37291 8.52949 1.37291C4.5875 1.37291 1.37291 4.62472 1.37291 8.6597C1.37309 12.6945 4.58761 15.9465 8.52949 15.9465C10.5723 15.9465 12.416 15.0749 13.7224 13.6726C14.9388 12.367 15.686 10.6038 15.6861 8.6597ZM17.059 8.6597C17.0589 10.7235 16.3448 12.6195 15.1557 14.1083L19.8029 18.8321C20.0686 19.1022 20.0653 19.5371 19.7952 19.8029C19.5251 20.0686 19.0902 20.0653 18.8244 19.7952L14.2155 15.1097C12.7079 16.4802 10.7163 17.3184 8.52949 17.3184C3.80841 17.3184 0.000176086 13.4312 0 8.6597C0 3.88804 3.80831 0 8.52949 0C13.2507 0 17.059 3.88804 17.059 8.6597Z" fill="black"/>
</svg>
