<svg width="14" height="20" viewBox="0 0 14 20" fill="none" xmlns="http://www.w3.org/2000/svg">
<path fill-rule="evenodd" clip-rule="evenodd" d="M0.820101 0.836837C1.3452 0.301019 2.05739 0 2.8 0H11.2C11.9426 0 12.6548 0.301019 13.1799 0.836837C13.705 1.37266 14 2.09938 14 2.85714V19.2857C14 19.567 13.8382 19.8221 13.5868 19.9373C13.3353 20.0525 13.041 20.0064 12.8349 19.8196L7 14.5271L1.16505 19.8196C0.959028 20.0064 0.664704 20.0525 0.413241 19.9373C0.161778 19.8221 0 19.567 0 19.2857V2.85714C0 2.09938 0.294999 1.37266 0.820101 0.836837ZM2.8 1.42857C2.4287 1.42857 2.0726 1.57908 1.81005 1.84699C1.5475 2.1149 1.4 2.47826 1.4 2.85714V17.6951L6.53495 13.0376C6.80017 12.797 7.19983 12.797 7.46505 13.0376L12.6 17.6951V2.85714C12.6 2.47826 12.4525 2.1149 12.1899 1.84699C11.9274 1.57908 11.5713 1.42857 11.2 1.42857H2.8Z" fill="black"/>
</svg>
