<svg width="284" height="18" viewBox="0 0 284 18" fill="none" xmlns="http://www.w3.org/2000/svg">
<path d="M5.26889 10.5745L5.01758 11.2164C4.61894 12.2573 4.30697 13.1075 4.07299 13.7754C3.83901 14.4434 3.72635 14.9639 3.72635 15.3282C3.72635 15.6492 3.84768 15.9094 4.08166 16.1089C4.31564 16.3171 4.58428 16.4646 4.89625 16.56C5.19956 16.6554 5.5722 16.7508 6.02282 16.8376L6.27414 16.8896V17.6443H0V16.9504C0.121323 16.8549 0.251312 16.7682 0.381301 16.7075C0.51129 16.6381 0.667277 16.5687 0.866594 16.4906C1.17857 16.3692 1.42988 16.239 1.62053 16.1089C1.81118 15.9788 1.9845 15.7706 2.13182 15.4843C2.21848 15.3108 2.3138 15.1027 2.40046 14.8771C2.48712 14.6516 2.55645 14.5041 2.58245 14.4347L2.73843 14.0183L7.70402 1.27518C7.73868 1.17976 7.76468 1.00626 7.78201 0.772048C7.78201 0.598554 7.80801 0.451084 7.82534 0.338313C7.85134 0.225542 7.886 0.13012 7.95533 0.0433728C8.38863 0.0433728 8.76126 0.086746 9.0819 0.173493C9.40254 0.26024 9.71451 0.425059 10.0352 0.667951L16.136 15.3108C16.2486 15.5884 16.3873 15.8053 16.5346 15.9701C16.6819 16.1349 16.8466 16.2564 17.0026 16.3431C17.1672 16.4299 17.3925 16.5253 17.6698 16.6381C17.9125 16.7161 18.1638 16.8202 18.4238 16.959L18.3978 17.653H10.6678L10.6418 16.959C11.0577 16.8376 11.413 16.7075 11.7077 16.586C12.0023 16.4646 12.271 16.2911 12.5136 16.0655C12.7563 15.84 12.8689 15.5711 12.8689 15.2501C12.8689 14.8945 12.427 13.5759 11.543 11.3031C11.491 11.173 11.439 11.0429 11.387 10.9128C11.335 10.7913 11.2917 10.6699 11.257 10.5658H5.26022L5.26889 10.5745ZM8.15464 2.86265L5.71952 9.40337H10.7718L8.15464 2.86265Z" fill="black"/>
<path d="M22.0981 2.32482C21.9855 1.99518 21.8122 1.76964 21.5955 1.65687C21.3702 1.5441 21.0149 1.43132 20.5209 1.3359C19.9143 1.20578 19.481 1.09301 19.221 1.01494L19.247 0.338313H28.225V1.03229C27.965 1.13638 27.7397 1.21446 27.5317 1.26651C27.3237 1.31855 27.0551 1.3706 26.7171 1.43133C26.2924 1.50072 25.9805 1.58747 25.7725 1.69157C25.5645 1.79566 25.4085 2.00385 25.3045 2.32482C25.1919 2.64578 25.1399 3.14892 25.1399 3.82554V13.5065C25.1399 14.5822 25.2439 15.3195 25.4519 15.7359C25.6598 16.1436 26.0498 16.4039 26.6304 16.5166C27.2024 16.6207 28.2596 16.6728 29.7935 16.6728C30.7641 16.6728 31.5873 16.5427 32.2546 16.2911C32.9219 16.0395 33.4592 15.5277 33.8578 14.7643L34.0571 14.3653C34.1958 14.0704 34.3258 13.8275 34.4384 13.628C34.5511 13.4284 34.6897 13.2463 34.8371 13.0728L35.6343 13.0988L34.7937 17.7918C33.6065 17.6964 32.6359 17.6443 31.882 17.6443H19.221L19.195 16.9243C19.325 16.881 19.611 16.7942 20.0443 16.6728C20.5469 16.5427 20.9456 16.4125 21.2402 16.2824C21.5349 16.1523 21.7775 15.9441 21.9681 15.6578C22.1588 15.3716 22.2628 14.9725 22.2628 14.452V3.89494C22.2628 3.17494 22.2021 2.65446 22.0895 2.31614L22.0981 2.32482Z" fill="black"/>
<path d="M42.4544 15.6839C42.5757 16.0048 42.7404 16.213 42.9484 16.3258C43.1564 16.4299 43.4857 16.5253 43.9363 16.6034C44.4562 16.6901 44.9242 16.8116 45.3315 16.9504L45.3055 17.653H36.4663V16.959C36.7262 16.8463 36.9515 16.7595 37.1682 16.7161C37.3762 16.6641 37.6362 16.612 37.9568 16.56C38.3554 16.508 38.6501 16.4299 38.8321 16.3258C39.014 16.2217 39.1614 15.9961 39.2654 15.6405C39.3693 15.2848 39.4213 14.721 39.4213 13.9489V3.94699C39.4213 3.21831 39.3607 2.68048 39.2394 2.33349C39.118 1.98651 38.9534 1.76964 38.7541 1.66554C38.5547 1.57012 38.2601 1.49205 37.8701 1.44C37.5495 1.38795 37.2895 1.3359 37.0815 1.28386C36.8736 1.23181 36.6569 1.13639 36.4229 1.00627L36.4489 0.329638H45.2622L45.2882 1.02361C45.1062 1.09301 44.8376 1.17108 44.4909 1.24916C44.0056 1.3706 43.6157 1.50072 43.321 1.62217C43.0264 1.74361 42.7837 1.94313 42.5844 2.20337C42.3851 2.46361 42.2811 2.81928 42.2811 3.27036V14.1918C42.2811 14.8684 42.3418 15.3629 42.4631 15.6839H42.4544Z" fill="black"/>
<path d="M52.0823 1.31855C51.2677 1.31855 50.6177 1.35325 50.1411 1.42265C49.8291 1.46602 49.5518 1.58747 49.3005 1.79566C49.0492 2.00386 48.8325 2.2294 48.6506 2.48964C48.4686 2.74988 48.2519 3.09687 47.9919 3.5306C47.7233 3.99904 47.498 4.3547 47.2987 4.59759H46.6834L47.0127 0.26024C48.4772 0.320963 50.3577 0.355663 52.6716 0.355663L57.8538 0.338313H59.5956C61.3808 0.338313 62.8367 0.303613 63.9373 0.234216L64.3619 4.60627H63.7206C63.5906 4.45012 63.452 4.24193 63.3047 3.99904C63.166 3.75614 63.0707 3.6 63.0274 3.5306C62.672 2.89735 62.3427 2.41157 62.0394 2.0559C61.7361 1.70024 61.3722 1.49205 60.9562 1.43133C60.6529 1.38795 60.3496 1.36193 60.0463 1.34458C59.743 1.32723 59.353 1.32723 58.8937 1.32723H56.8572V14.452C56.8572 15.1373 56.9699 15.6405 57.2125 15.9788C57.4465 16.3084 57.7585 16.534 58.1398 16.6467C58.5211 16.7595 59.1017 16.8723 59.8643 16.9677C59.8643 17.28 59.8643 17.5055 59.8383 17.6617H51.0424L51.0164 16.9677C51.1637 16.9157 51.4063 16.8463 51.7183 16.7508C52.2383 16.5947 52.6542 16.4386 52.9575 16.2998C53.2608 16.161 53.5122 15.9441 53.7115 15.6492C53.9108 15.3542 54.0148 14.9552 54.0148 14.452V1.32723H52.0736L52.0823 1.31855Z" fill="black"/>
<path d="M67.3776 12.3094C67.4643 12.4569 67.5423 12.613 67.5943 12.7778C67.655 12.934 67.7156 13.1422 67.785 13.4024C67.8196 13.4892 67.8543 13.5933 67.8803 13.706C68.1922 14.7296 68.7815 15.5104 69.6481 16.0569C70.5147 16.6034 71.5113 16.881 72.6205 16.881C73.2012 16.881 73.7731 16.7769 74.3277 16.5687C74.8824 16.3605 75.333 16.0482 75.6969 15.6231C76.0609 15.1981 76.2342 14.6863 76.2342 14.0877C76.2342 13.5672 76.0523 13.0728 75.6796 12.6217C75.3156 12.1706 74.8564 11.7629 74.3104 11.4072C73.7644 11.0516 73.0192 10.6005 72.0573 10.0713C70.9307 9.44675 70.0208 8.90024 69.3188 8.42313C68.6169 7.94602 68.0276 7.37349 67.5423 6.71422C67.057 6.05494 66.8144 5.30892 66.8144 4.47614C66.8144 3.44386 67.1003 2.60241 67.681 1.92578C68.2616 1.25783 69.0068 0.772047 69.9168 0.459758C70.8267 0.156144 71.7799 0 72.7939 0C73.6605 0 74.527 0.104095 75.3936 0.320963C76.2602 0.53783 77.0748 0.841444 77.8548 1.24048L78.0281 5.03133H77.2048C77.1008 4.82313 76.9708 4.50217 76.8322 4.05976L76.7022 3.67807C76.3989 2.8106 75.8789 2.15132 75.1423 1.70024C74.4057 1.24916 73.5478 1.03229 72.5859 1.03229C72.0919 1.03229 71.5893 1.11904 71.0867 1.28386C70.584 1.44867 70.1594 1.70892 69.8214 2.06458C69.4835 2.41157 69.3102 2.8453 69.3102 3.35711C69.3102 3.83422 69.4835 4.2853 69.8388 4.70169C70.1941 5.11807 70.6274 5.49976 71.156 5.83807C71.6759 6.17639 72.4039 6.61012 73.3225 7.12193C74.501 7.7812 75.4543 8.35373 76.1822 8.85687C76.9102 9.36 77.5341 9.96723 78.0541 10.6699C78.574 11.3812 78.834 12.1793 78.834 13.0728C78.834 14.1831 78.5307 15.1027 77.9154 15.8487C77.3001 16.586 76.5115 17.1325 75.541 17.4795C74.5704 17.8265 73.5391 18 72.4559 18C71.4853 18 70.4367 17.8786 69.3102 17.6357C68.1922 17.3928 67.2823 17.0545 66.5891 16.6294V12.3354L67.369 12.3094H67.3776Z" fill="black"/>
<path d="M87.2226 15.6839C87.344 16.0048 87.5086 16.213 87.7166 16.3258C87.9246 16.4299 88.2539 16.5253 88.7045 16.6034C89.2245 16.6901 89.6924 16.8116 90.0997 16.9504L90.0737 17.653H81.2345V16.959C81.4945 16.8463 81.7198 16.7595 81.9364 16.7161C82.1444 16.6641 82.4044 16.612 82.725 16.56C83.1236 16.508 83.4183 16.4299 83.6003 16.3258C83.7823 16.2217 83.9296 15.9961 84.0336 15.6405C84.1376 15.2848 84.1896 14.721 84.1896 13.9489V3.94699C84.1896 3.21831 84.1289 2.68048 84.0076 2.33349C83.8863 1.98651 83.7216 1.76964 83.5223 1.66554C83.323 1.57012 83.0283 1.49205 82.6384 1.44C82.3177 1.38795 82.0577 1.3359 81.8498 1.28386C81.6418 1.23181 81.4251 1.13639 81.1912 1.00627L81.2171 0.329638H90.0304L90.0564 1.02361C89.8744 1.09301 89.6058 1.17108 89.2591 1.24916C88.7738 1.3706 88.3839 1.50072 88.0892 1.62217C87.7946 1.74361 87.5519 1.94313 87.3526 2.20337C87.1533 2.46361 87.0493 2.81928 87.0493 3.27036V14.1918C87.0493 14.8684 87.11 15.3629 87.2313 15.6839H87.2226Z" fill="black"/>
<path d="M107.371 1.66554C107.059 1.82169 106.756 2.02988 106.461 2.28145C106.166 2.53301 105.898 2.83663 105.655 3.20964L101.296 9.89783V14.3827C101.296 14.9986 101.357 15.4496 101.469 15.7359C101.582 16.0308 101.738 16.2217 101.937 16.3171C102.137 16.4125 102.431 16.4993 102.821 16.5687C103.341 16.6554 103.792 16.7855 104.173 16.9504L104.147 17.6443H95.5679L95.5419 16.9504C95.7759 16.8202 95.9926 16.7248 96.2006 16.6728C96.4085 16.6207 96.6685 16.5687 96.9805 16.5253C97.3531 16.4733 97.6304 16.4039 97.8211 16.3084C98.0031 16.2217 98.159 16.0222 98.2717 15.7099C98.3844 15.3976 98.445 14.9205 98.445 14.2612V10.1667L93.5921 2.55904C93.3841 2.23807 93.0115 1.92578 92.4482 1.61349C91.8936 1.3012 91.3996 1.10169 90.975 0.99759V0.320963H99.2163L99.2423 1.01494C98.731 1.10169 98.2457 1.26651 97.7864 1.50072C97.3271 1.73494 97.1018 2.0559 97.1018 2.45494C97.1018 2.7412 97.3964 3.35711 97.9771 4.29398C98.5577 5.23952 99.3203 6.4106 100.265 7.82458L100.889 8.77012C100.941 8.6747 101.062 8.48386 101.261 8.21494C103.315 5.17012 104.347 3.26169 104.347 2.48096C104.347 2.1253 104.173 1.85639 103.827 1.66554C103.48 1.4747 103.038 1.30988 102.483 1.17108C102.466 1.17108 102.353 1.13639 102.154 1.07566L102.128 0.72C102.128 0.659277 102.128 0.529156 102.154 0.338313H108.827V1.03229L108.602 1.12771C108.099 1.32723 107.692 1.5094 107.38 1.67422L107.371 1.66554Z" fill="black"/>
<path d="M112.137 10.5745L111.886 11.2164C111.487 12.2573 111.175 13.1075 110.941 13.7754C110.707 14.4434 110.595 14.9639 110.595 15.3282C110.595 15.6492 110.716 15.9094 110.95 16.1089C111.184 16.3171 111.453 16.4646 111.765 16.56C112.068 16.6554 112.441 16.7508 112.891 16.8376L113.142 16.8896V17.6443H106.868V16.9504C106.99 16.8549 107.12 16.7682 107.25 16.7075C107.38 16.6381 107.536 16.5687 107.735 16.4906C108.047 16.3692 108.298 16.239 108.489 16.1089C108.679 15.9788 108.853 15.7706 109 15.4843C109.087 15.3108 109.182 15.1027 109.269 14.8771C109.355 14.6516 109.425 14.5041 109.451 14.4347L109.607 14.0183L114.572 1.27518C114.607 1.17976 114.633 1.00626 114.65 0.772048C114.65 0.598554 114.676 0.451084 114.694 0.338313C114.72 0.225542 114.754 0.13012 114.824 0.0433728C115.257 0.0433728 115.63 0.086746 115.95 0.173493C116.271 0.26024 116.583 0.425059 116.903 0.667951L123.004 15.3108C123.117 15.5884 123.256 15.8053 123.403 15.9701C123.55 16.1349 123.715 16.2564 123.871 16.3431C124.036 16.4299 124.261 16.5253 124.538 16.6381C124.781 16.7161 125.032 16.8202 125.292 16.959L125.266 17.653H117.536L117.51 16.959C117.926 16.8376 118.281 16.7075 118.576 16.586C118.871 16.4646 119.139 16.2911 119.382 16.0655C119.625 15.84 119.737 15.5711 119.737 15.2501C119.737 14.8945 119.295 13.5759 118.411 11.3031C118.359 11.173 118.307 11.0429 118.255 10.9128C118.203 10.7913 118.16 10.6699 118.125 10.5658H112.129L112.137 10.5745ZM115.014 2.86265L112.579 9.40337H117.631L115.014 2.86265Z" fill="black"/>
<path d="M137.762 10.5745L137.511 11.2164C137.112 12.2573 136.8 13.1075 136.566 13.7754C136.332 14.4434 136.22 14.9639 136.22 15.3282C136.22 15.6492 136.341 15.9094 136.575 16.1089C136.809 16.3171 137.078 16.4646 137.39 16.56C137.693 16.6554 138.066 16.7508 138.516 16.8376L138.768 16.8896V17.6443H132.493V16.9504C132.615 16.8549 132.745 16.7682 132.875 16.7075C133.005 16.6381 133.161 16.5687 133.36 16.4906C133.672 16.3692 133.923 16.239 134.114 16.1089C134.305 15.9788 134.478 15.7706 134.625 15.4843C134.712 15.3108 134.807 15.1027 134.894 14.8771C134.981 14.6516 135.05 14.5041 135.076 14.4347L135.232 14.0183L140.197 1.27518C140.232 1.17976 140.258 1.00626 140.275 0.772048C140.275 0.598554 140.301 0.451084 140.319 0.338313C140.345 0.225542 140.38 0.13012 140.449 0.0433728C140.882 0.0433728 141.255 0.086746 141.575 0.173493C141.896 0.26024 142.208 0.425059 142.529 0.667951L148.629 15.3108C148.742 15.5884 148.881 15.8053 149.028 15.9701C149.175 16.1349 149.34 16.2564 149.496 16.3431C149.661 16.4299 149.886 16.5253 150.163 16.6381C150.406 16.7161 150.657 16.8202 150.917 16.959L150.891 17.653H143.161L143.135 16.959C143.551 16.8376 143.907 16.7075 144.201 16.586C144.496 16.4646 144.764 16.2911 145.007 16.0655C145.25 15.84 145.362 15.5711 145.362 15.2501C145.362 14.8945 144.92 13.5759 144.037 11.3031C143.985 11.173 143.933 11.0429 143.881 10.9128C143.829 10.7913 143.785 10.6699 143.751 10.5658H137.754L137.762 10.5745ZM140.639 2.86265L138.204 9.40337H143.257L140.639 2.86265Z" fill="black"/>
<path d="M155.068 3.14024C154.834 2.76723 154.6 2.47229 154.349 2.24675C154.098 2.0212 153.855 1.85638 153.604 1.74361C153.352 1.63084 153.023 1.50072 152.607 1.36193C152.208 1.23181 151.897 1.11904 151.68 1.03229V0.338313H156.316L168.821 13.281V4.91855C168.821 4.07711 168.7 3.30506 168.466 2.61976C168.37 2.33349 168.232 2.11663 168.067 1.95181C167.902 1.79566 167.721 1.67422 167.521 1.60482C167.322 1.53542 167.062 1.45735 166.741 1.37928C166.689 1.36193 166.551 1.32723 166.334 1.26651C166.117 1.20578 165.918 1.13638 165.745 1.04964C165.745 0.815421 165.762 0.581205 165.788 0.346988H172.79V1.06699C172.539 1.17976 172.287 1.29253 172.019 1.39663C171.369 1.68289 170.927 1.91711 170.676 2.09928C170.424 2.28145 170.251 2.57639 170.147 2.96675C170.043 3.36578 169.991 4.00771 169.982 4.90121C169.982 5.35229 169.974 6.02024 169.956 6.90506C169.948 7.58169 169.939 8.42313 169.93 9.4294C169.93 10.4357 169.913 11.6154 169.913 12.96C169.913 13.5412 169.965 14.4173 170.069 15.5711C170.156 16.5513 170.208 17.28 170.216 17.7831C170.052 17.8439 169.835 17.8786 169.566 17.8786C169.28 17.8786 169.029 17.8439 168.812 17.7831C168.171 17.0024 167.452 16.1696 166.637 15.2935L156.143 4.24193V13.5759C156.143 14.1658 156.221 14.7643 156.368 15.3716C156.437 15.6752 156.567 15.9094 156.749 16.0742C156.931 16.239 157.139 16.3518 157.356 16.4299C157.573 16.4993 157.867 16.5687 158.24 16.6381C158.751 16.7161 159.133 16.8202 159.384 16.959C159.384 17.1933 159.367 17.4275 159.341 17.6617H151.845C151.827 17.5055 151.819 17.2627 151.819 16.9417L152.434 16.7855C152.997 16.6467 153.448 16.508 153.786 16.3692C154.124 16.2304 154.41 16.0222 154.652 15.7186C154.895 15.4149 155.042 15.0072 155.086 14.4781V3.14892L155.068 3.14024Z" fill="black"/>
<path d="M177.435 2.61108C177.383 2.34217 177.253 2.1253 177.036 1.95181C176.82 1.77831 176.586 1.63952 176.308 1.53542C176.04 1.43132 175.693 1.32723 175.269 1.20578C174.948 1.11904 174.723 1.04964 174.593 1.00627L174.619 0.329638H182.487C184.706 0.329638 186.647 0.615903 188.337 1.19711C190.018 1.76964 191.353 2.69783 192.323 3.97301C193.294 5.24819 193.788 6.88771 193.788 8.90024C193.788 10.4443 193.415 11.8843 192.678 13.2202C191.942 14.5561 190.841 15.6231 189.394 16.4386C187.947 17.254 186.205 17.653 184.177 17.653H174.627L174.601 16.959L175.303 16.7769C175.797 16.6641 176.196 16.5427 176.499 16.4299C176.802 16.3171 177.054 16.1176 177.262 15.8487C177.47 15.5798 177.574 15.2067 177.574 14.7383V4.2159C177.574 3.69542 177.53 3.15759 177.444 2.60241L177.435 2.61108ZM180.425 14.053C180.425 14.8251 180.572 15.4323 180.867 15.8747C181.161 16.3171 181.673 16.56 182.383 16.5947C182.877 16.6207 183.389 16.6381 183.908 16.6381C185.364 16.6381 186.595 16.2998 187.6 15.6231C188.614 14.9465 189.359 14.0617 189.862 12.986C190.356 11.9017 190.607 10.7653 190.607 9.56819C190.607 7.98072 190.321 6.57542 189.758 5.34362C189.195 4.11181 188.311 3.14892 187.124 2.43759C185.936 1.72626 184.446 1.3706 182.652 1.3706H180.416V14.0617L180.425 14.053Z" fill="black"/>
<path d="M202.991 9.74169C202.844 9.59422 202.67 9.47277 202.462 9.3947C202.254 9.31663 201.977 9.26458 201.622 9.24723L200.781 9.19518V14.3133C200.781 14.9552 200.833 15.4236 200.946 15.7272C201.058 16.0308 201.206 16.2304 201.396 16.3258C201.587 16.4212 201.873 16.4993 202.254 16.5687C202.532 16.6121 202.774 16.6641 202.982 16.7161C203.199 16.7682 203.415 16.8549 203.649 16.9677L203.623 17.6617H195.209L195.183 16.9677C195.426 16.8376 195.642 16.7422 195.85 16.6814C196.058 16.6207 196.301 16.5687 196.578 16.5253C196.933 16.4733 197.193 16.3952 197.367 16.2911C197.54 16.187 197.679 15.9614 197.774 15.6231C197.869 15.2761 197.921 14.7296 197.921 13.9749V3.89494C197.921 3.26169 197.869 2.79325 197.765 2.48096C197.661 2.16867 197.505 1.95181 197.306 1.83036C197.107 1.70891 196.795 1.58747 196.37 1.44867C195.919 1.32723 195.521 1.18843 195.192 1.04096L195.218 0.346988H201.344C203 0.346988 204.447 0.42506 205.686 0.57253C206.925 0.72 208.034 1.11904 209.014 1.76964C209.993 2.42024 210.478 3.41783 210.478 4.76241C210.478 5.59518 210.244 6.31518 209.776 6.92241C209.308 7.52964 208.71 8.00675 207.982 8.35373C207.255 8.70072 206.466 8.93494 205.634 9.05639C205.738 9.19518 206.267 9.93253 207.211 11.2598C207.913 12.2573 208.502 13.0814 208.996 13.7494C209.49 14.4174 209.976 15.0419 210.461 15.6231C210.756 15.9354 211.016 16.1783 211.241 16.3518C211.466 16.5253 211.761 16.6728 212.107 16.7769C212.454 16.881 212.887 16.933 213.407 16.933V17.679C212.532 17.8959 211.752 18 211.068 18C210.132 18 209.265 17.7137 208.485 17.1325C207.705 16.56 207.021 15.8747 206.449 15.0853C205.877 14.2959 205.227 13.2896 204.49 12.0665C204.057 11.3205 203.727 10.7827 203.493 10.4443C203.277 10.1234 203.104 9.88916 202.956 9.74169H202.991ZM201.457 8.30169C202.592 8.30169 203.571 8.23229 204.395 8.10217C205.218 7.97205 205.929 7.65108 206.518 7.15663C207.107 6.66217 207.402 5.90747 207.402 4.90988C207.402 3.80819 207.081 3.00144 206.449 2.47229C205.816 1.95181 205.071 1.63084 204.221 1.5094C203.372 1.38795 202.324 1.32723 201.084 1.32723H200.79V8.29301H201.457V8.30169Z" fill="black"/>
<path d="M229.899 17.7745C229.76 17.8005 229.613 17.8178 229.474 17.8178C229.309 17.8178 229.049 17.7918 228.72 17.7398C228.382 17.6877 228.131 17.6617 227.949 17.6617H214.317L214.291 17.0111C214.569 16.8636 214.82 16.7508 215.054 16.6814C215.288 16.612 215.548 16.56 215.834 16.5166C216.189 16.4559 216.449 16.3778 216.614 16.2737C216.778 16.1783 216.9 15.9701 216.995 15.6405C217.082 15.3195 217.125 14.8077 217.125 14.1051V4.03373C217.125 3.33976 217.073 2.83663 216.96 2.50699C216.848 2.17735 216.692 1.95181 216.475 1.82169C216.258 1.69157 215.912 1.55277 215.409 1.4053C215.331 1.37928 215.175 1.32723 214.95 1.25783C214.725 1.18843 214.508 1.11036 214.291 1.01494L214.317 0.338313H227.871C227.992 0.338313 228.131 0.338312 228.278 0.312288C228.425 0.294939 228.529 0.27759 228.59 0.268915C228.859 0.225542 229.093 0.199518 229.309 0.199518C229.491 0.199518 229.656 0.216867 229.803 0.251565V4.3894L229.11 4.41542C228.963 4.26795 228.833 4.09446 228.737 3.91229C228.642 3.73012 228.529 3.47855 228.408 3.18361C228.226 2.74121 228.053 2.39422 227.879 2.14265C227.706 1.89108 227.455 1.70891 227.117 1.59614C226.623 1.44 226.008 1.3359 225.271 1.29253C224.534 1.24916 223.685 1.22313 222.723 1.22313C221.588 1.22313 220.695 1.26651 220.037 1.34458C220.002 1.74361 219.985 2.20337 219.985 2.71518V8.11952H223.815C224.517 8.11952 225.037 8.06747 225.384 7.96337C225.73 7.85928 225.999 7.68578 226.19 7.44289C226.38 7.2 226.64 6.77494 226.978 6.16771L227.177 5.81205H227.931V11.52L227.177 11.5634C226.892 10.8 226.536 10.2101 226.094 9.78506C225.652 9.36 225.072 9.14313 224.335 9.14313H219.993V13.628C219.993 14.5561 220.106 15.2501 220.323 15.6925C220.539 16.1349 220.851 16.4212 221.267 16.5513C221.683 16.6814 222.264 16.7422 223.027 16.7422H224.326C225.444 16.7422 226.406 16.612 227.212 16.3605C228.027 16.1089 228.625 15.5884 229.015 14.8077L229.197 14.3913C229.353 14.0443 229.483 13.7841 229.578 13.6106C229.673 13.4371 229.803 13.2723 229.951 13.1161H230.791L229.916 17.7831L229.899 17.7745Z" fill="black"/>
<path d="M248.314 17.7745C248.175 17.8005 248.028 17.8178 247.889 17.8178C247.724 17.8178 247.464 17.7918 247.135 17.7398C246.797 17.6877 246.546 17.6617 246.364 17.6617H232.732L232.706 17.0111C232.984 16.8636 233.235 16.7508 233.469 16.6814C233.703 16.612 233.963 16.56 234.249 16.5166C234.604 16.4559 234.864 16.3778 235.029 16.2737C235.193 16.1783 235.315 15.9701 235.41 15.6405C235.497 15.3195 235.54 14.8077 235.54 14.1051V4.03373C235.54 3.33976 235.488 2.83663 235.375 2.50699C235.263 2.17735 235.107 1.95181 234.89 1.82169C234.674 1.69157 234.327 1.55277 233.824 1.4053C233.746 1.37928 233.59 1.32723 233.365 1.25783C233.14 1.18843 232.923 1.11036 232.706 1.01494L232.732 0.338313H246.286C246.407 0.338313 246.546 0.338312 246.693 0.312288C246.84 0.294939 246.944 0.27759 247.005 0.268915C247.274 0.225542 247.508 0.199518 247.724 0.199518C247.906 0.199518 248.071 0.216867 248.218 0.251565V4.3894L247.525 4.41542C247.378 4.26795 247.248 4.09446 247.152 3.91229C247.057 3.73012 246.944 3.47855 246.823 3.18361C246.641 2.74121 246.468 2.39422 246.295 2.14265C246.121 1.89108 245.87 1.70891 245.532 1.59614C245.038 1.44 244.423 1.3359 243.686 1.29253C242.949 1.24916 242.1 1.22313 241.138 1.22313C240.003 1.22313 239.11 1.26651 238.452 1.34458C238.417 1.74361 238.4 2.20337 238.4 2.71518V8.11952H242.23C242.932 8.11952 243.452 8.06747 243.799 7.96337C244.145 7.85928 244.414 7.68578 244.605 7.44289C244.795 7.2 245.055 6.77494 245.393 6.16771L245.593 5.81205H246.347V11.52L245.593 11.5634C245.307 10.8 244.951 10.2101 244.509 9.78506C244.067 9.36 243.487 9.14313 242.75 9.14313H238.409V13.628C238.409 14.5561 238.521 15.2501 238.738 15.6925C238.954 16.1349 239.266 16.4212 239.682 16.5513C240.098 16.6814 240.679 16.7422 241.442 16.7422H242.742C243.859 16.7422 244.821 16.612 245.627 16.3605C246.442 16.1089 247.04 15.5884 247.43 14.8077L247.612 14.3913C247.768 14.0443 247.898 13.7841 247.993 13.6106C248.088 13.4371 248.218 13.2723 248.366 13.1161H249.206L248.331 17.7831L248.314 17.7745Z" fill="black"/>
<path d="M262.032 10.7826C262.959 8.58795 263.67 6.85301 264.146 5.57783C264.623 4.31132 264.866 3.40048 264.866 2.83663C264.866 2.49831 264.779 2.23807 264.597 2.03855C264.424 1.84771 264.198 1.70024 263.947 1.60482C263.687 1.5094 263.358 1.42265 262.95 1.3359C262.638 1.27518 262.405 1.21446 262.249 1.16241C262.223 1.04096 262.205 0.910843 262.205 0.780723C262.205 0.633253 262.223 0.485783 262.249 0.338313H269.103C269.129 0.581204 269.147 0.824096 269.147 1.06699C268.965 1.19711 268.757 1.32723 268.505 1.44867C268.254 1.57012 268.011 1.68289 267.769 1.78699L267.439 1.94313C267.127 2.08193 266.85 2.34217 266.599 2.71518C266.348 3.08819 266.131 3.48723 265.958 3.90361C265.784 4.32868 265.585 4.85783 265.351 5.50843C265.134 6.07229 265.004 6.42795 264.952 6.57542C264.302 8.09349 263.479 10.132 262.465 12.7084C261.451 15.2761 260.784 16.9764 260.463 17.8005C260.42 17.8005 260.325 17.8265 260.177 17.8612C260.03 17.8959 259.909 17.9046 259.813 17.9046C259.571 17.9046 259.389 17.9046 259.267 17.8786C257.318 13.3937 255.142 8.49253 252.733 3.18361C252.517 2.71518 252.3 2.35084 252.083 2.10795C251.858 1.85638 251.615 1.67422 251.338 1.5441C251.061 1.41398 250.653 1.2665 250.099 1.10169L250.125 0.346988H257.95C257.95 0.42506 257.95 0.494457 257.968 0.55518C257.985 0.615903 257.985 0.667952 257.994 0.711325C258.002 0.763373 258.011 0.824095 258.02 0.893493C258.02 0.962891 258.037 1.04964 258.037 1.14506C257.846 1.20578 257.673 1.24916 257.517 1.27518C256.91 1.42265 256.442 1.58747 256.096 1.75229C255.749 1.91711 255.576 2.17735 255.576 2.52434C255.576 2.74988 255.792 3.35711 256.217 4.34602C256.642 5.34361 257.318 6.87036 258.236 8.93494C259.38 11.4506 260.16 13.2463 260.585 14.3219C260.871 13.5586 261.356 12.3788 262.049 10.7826H262.032Z" fill="black"/>
<path d="M270.845 10.5745L270.594 11.2164C270.195 12.2573 269.883 13.1075 269.649 13.7754C269.415 14.4434 269.303 14.9639 269.303 15.3282C269.303 15.6492 269.424 15.9094 269.658 16.1089C269.892 16.3171 270.161 16.4646 270.473 16.56C270.776 16.6554 271.148 16.7508 271.599 16.8376L271.85 16.8896V17.6443H265.576V16.9504C265.698 16.8549 265.828 16.7682 265.958 16.7075C266.088 16.6381 266.244 16.5687 266.443 16.4906C266.755 16.3692 267.006 16.239 267.197 16.1089C267.387 15.9788 267.561 15.7706 267.708 15.4843C267.795 15.3108 267.89 15.1027 267.977 14.8771C268.063 14.6516 268.133 14.5041 268.159 14.4347L268.315 14.0183L273.28 1.27518C273.315 1.17976 273.341 1.00626 273.358 0.772048C273.358 0.598554 273.384 0.451084 273.402 0.338313C273.428 0.225542 273.462 0.13012 273.532 0.0433728C273.965 0.0433728 274.337 0.086746 274.658 0.173493C274.979 0.26024 275.291 0.425059 275.611 0.667951L281.712 15.3108C281.825 15.5884 281.964 15.8053 282.111 15.9701C282.258 16.1349 282.423 16.2564 282.579 16.3431C282.743 16.4299 282.969 16.5253 283.246 16.6381C283.489 16.7161 283.74 16.8202 284 16.959L283.974 17.653H276.244L276.218 16.959C276.634 16.8376 276.989 16.7075 277.284 16.586C277.579 16.4646 277.847 16.2911 278.09 16.0655C278.333 15.84 278.445 15.5711 278.445 15.2501C278.445 14.8945 278.003 13.5759 277.119 11.3031C277.067 11.173 277.015 11.0429 276.963 10.9128C276.911 10.7913 276.868 10.6699 276.833 10.5658H270.836L270.845 10.5745ZM273.731 2.86265L271.296 9.40337H276.348L273.731 2.86265Z" fill="black"/>
</svg>
