<svg width="16" height="30" viewBox="0 0 16 30" fill="none" xmlns="http://www.w3.org/2000/svg">
<path d="M2.10941 13.9606C1.74852 13.906 1.38869 13.8954 1.04592 13.9595C0.580927 14.0463 0.124795 14.3639 0.0212103 14.825C-0.0925491 15.3361 0.266853 15.8596 0.727152 16.1096C1.6697 16.6182 3.01469 16.7206 4.0151 16.9763C7.13465 17.7738 9.24438 19.8777 10.4024 21.56C11.198 22.5903 11.8035 24.0509 12.0222 24.865C12.3793 26.2025 12.7563 27.5456 13.3719 28.7959C14.1265 30.3379 16.31 30.5807 15.9629 28.4458C15.6745 26.6728 14.2577 25.1389 13.3444 23.6554C11.9573 21.3991 10.3939 19.1987 8.41609 17.4149C7.41446 16.5134 6.31118 15.7201 5.10043 15.1246C4.2427 14.7035 3.16104 14.1249 2.11194 13.961L2.10941 13.9606Z" fill="black"/>
<path d="M2.10941 16.0394C1.74852 16.094 1.38869 16.1046 1.04592 16.0405C0.580927 15.9537 0.124795 15.6361 0.0212103 15.175C-0.0925491 14.6639 0.266853 14.1404 0.727152 13.8904C1.6697 13.3818 3.01469 13.2794 4.0151 13.0237C7.13465 12.2262 9.24438 10.1223 10.4024 8.43995C11.198 7.40973 11.8035 5.94912 12.0222 5.13498C12.3793 3.79748 12.7563 2.4544 13.3719 1.20406C14.1265 -0.337928 16.31 -0.580711 15.9629 1.55421C15.6745 3.32718 14.2577 4.86112 13.3444 6.34464C11.9573 8.60087 10.3939 10.8013 8.4161 12.5851C7.41446 13.4866 6.31118 14.2799 5.10043 14.8754C4.2427 15.2965 3.16104 15.8751 2.11194 16.039L2.10941 16.0394Z" fill="black"/>
</svg>
