<svg width="128" height="128" viewBox="0 0 128 128" fill="none" xmlns="http://www.w3.org/2000/svg">
<path d="M117.611 29.0713C117.059 29.1681 116.508 29.2278 116.076 29.2948C112.2 29.8761 109.383 32.7378 108.183 36.4266C106.864 40.4881 106.208 44.326 105.329 48.4769C104.166 53.932 102.855 59.3572 101.886 64.857C99.8437 76.5049 99.3369 85.5147 91.7427 95.225C88.3889 99.51 81.7262 105.606 76.0473 106.016C71.0912 106.374 70.1522 99.6218 75.7864 98.2208C80.0866 97.1477 84.3049 96.8048 87.9418 93.8836C90.6322 91.7224 92.7711 87.1393 93.9114 83.9199C101.208 63.3666 84.8191 40.8235 62.4461 45.4066C58.4291 46.2264 54.591 48.082 51.6919 51.0107C48.3903 54.3493 47.5854 58.1276 46.3259 62.4425C45.5359 65.1253 43.5983 67.5845 40.9525 68.5906C38.5081 69.5221 36.0636 68.9259 35.3481 66.1686C34.4762 62.8076 37.025 58.3735 39.067 55.877C48.7853 43.9683 64.1006 39.4001 78.6557 44.9967C82.397 46.435 85.8848 48.5664 88.8957 51.2194C92.1824 54.1108 94.0306 57.2781 96.0205 60.9893C96.341 61.5929 96.9223 62.0997 97.6005 62.1518C98.7556 62.2413 99.5978 61.034 99.8959 59.9162C101.811 52.6428 104.129 45.5333 105.374 38.0512C105.694 36.1136 106.015 33.1998 103.145 34.2729C100.336 35.3312 98.5693 38.2375 97.362 40.8086C96.3484 42.9548 95.2529 46.6735 93.1065 48C91.0794 49.252 89.3578 47.6945 90.0434 45.5482C90.975 42.6493 93.74 40.436 95.6404 38.1779C98.5395 34.7424 101.714 31.4485 105.478 28.9595C107.595 27.5585 111.187 25.3526 114.496 24.6968C102.78 9.67303 84.5284 0 64.0037 0C28.6556 0 0 28.6539 0 64C0 72.3093 1.60233 80.2385 4.47907 87.5193C6.96082 84.1658 12.282 83.9124 13.6831 89.3377C15.129 94.912 13.7353 98.6456 20.4055 100.814C33.3881 105.04 45.6179 95.0461 54.3972 86.7294C58.3993 82.9362 62.3045 78.8598 65.6508 74.4704C68.684 70.4984 71.121 66.1835 74.7505 62.6735C76.2112 61.2576 78.7452 58.9548 80.8245 58.8058C82.8441 58.6642 84.6402 60.0205 83.2689 62.0699C82.8143 62.7555 80.3102 64.5515 79.4979 65.1476C77.3441 66.7201 75.5927 67.9795 73.6848 69.8873C69.1014 74.4704 64.9204 79.4783 60.3966 84.1286C54.196 90.5002 46.8178 97.714 38.8136 101.694C32.2702 104.95 22.9245 107.424 15.2929 105.494C27.0309 119.259 44.4926 128 63.9963 128C99.3444 128 128 99.3461 128 64C128 51.1076 124.177 39.1169 117.618 29.0713H117.611Z" fill="black"/>
</svg>
