<?xml version="1.0" encoding="utf-8"?><svg viewBox="0 0 20 20" xmlns="http://www.w3.org/2000/svg" xmlns:xlink="http://www.w3.org/1999/xlink"><style>:root>svg{display:none}:root>svg:target{display:block}</style><svg viewBox="0 0 19 20" id="cart" xmlns="http://www.w3.org/2000/svg"><path fill-rule="evenodd" clip-rule="evenodd" d="M9.5 1.429c-.97 0-1.898.376-2.584 1.046A3.531 3.531 0 005.846 5v.714h7.308V5c0-.947-.385-1.856-1.07-2.525A3.697 3.697 0 009.5 1.429zM4.385 5v.714H1.462c-.388 0-.76.15-1.034.419A1.412 1.412 0 000 7.143v9.643C0 18.53 1.504 20 3.288 20h12.423C17.476 20 19 18.607 19 16.841V7.143c0-.379-.154-.742-.428-1.01a1.479 1.479 0 00-1.034-.419h-2.923V5a4.944 4.944 0 00-1.498-3.536A5.176 5.176 0 009.5 0a5.176 5.176 0 00-3.617 1.464A4.943 4.943 0 004.385 5zM1.462 7.143h16.076v9.699c0 .934-.827 1.73-1.827 1.73H3.288c-.977 0-1.826-.83-1.826-1.786V7.143zm4.384 2.071a.723.723 0 00-.73-.714c-.404 0-.731.32-.731.714v.715c0 1.326.539 2.597 1.498 3.535A5.176 5.176 0 009.5 14.93a5.176 5.176 0 003.617-1.465 4.944 4.944 0 001.498-3.535v-.715a.723.723 0 00-.73-.714c-.404 0-.731.32-.731.714v.715c0 .947-.385 1.855-1.07 2.525A3.697 3.697 0 019.5 13.5c-.97 0-1.898-.376-2.584-1.046a3.531 3.531 0 01-1.07-2.525v-.715z"/></svg><svg viewBox="0 0 20 20" id="search" xmlns="http://www.w3.org/2000/svg"><path d="M15.686 8.66c0-4.035-3.214-7.287-7.157-7.287-3.941 0-7.156 3.252-7.156 7.287 0 4.034 3.215 7.287 7.156 7.287a7.075 7.075 0 005.193-2.274 7.33 7.33 0 001.964-5.013zm1.373 0c0 2.063-.714 3.96-1.903 5.448l4.647 4.724a.687.687 0 01-.979.963l-4.609-4.685a8.425 8.425 0 01-5.686 2.208C3.81 17.318 0 13.431 0 8.66 0 3.888 3.808 0 8.53 0c4.72 0 8.529 3.888 8.529 8.66z"/></svg><svg viewBox="0 0 14 20" id="wishlist" xmlns="http://www.w3.org/2000/svg"><path fill-rule="evenodd" clip-rule="evenodd" d="M.82.837A2.772 2.772 0 012.8 0h8.4c.743 0 1.455.301 1.98.837.525.536.82 1.262.82 2.02v16.429a.715.715 0 01-.413.651.69.69 0 01-.752-.117L7 14.527 1.165 19.82a.69.69 0 01-.752.117.715.715 0 01-.413-.651V2.857C0 2.1.295 1.373.82.837zm1.98.592c-.371 0-.727.15-.99.418-.262.268-.41.631-.41 1.01v14.838l5.135-4.657a.69.69 0 01.93 0l5.135 4.657V2.857c0-.379-.147-.742-.41-1.01a1.386 1.386 0 00-.99-.418H2.8z"/></svg></svg>