<svg width="16" height="30" viewBox="0 0 16 30" fill="none" xmlns="http://www.w3.org/2000/svg">
<path d="M13.8906 13.9606C14.2515 13.906 14.6113 13.8954 14.9541 13.9595C15.4191 14.0463 15.8752 14.3639 15.9788 14.825C16.0925 15.3361 15.7331 15.8596 15.2728 16.1096C14.3303 16.6182 12.9853 16.7206 11.9849 16.9763C8.86535 17.7738 6.75562 19.8777 5.59762 21.56C4.80202 22.5903 4.19655 24.0509 3.97778 24.865C3.62066 26.2025 3.24372 27.5456 2.6281 28.7959C1.87345 30.3379 -0.309959 30.5807 0.0370914 28.4458C0.32551 26.6728 1.74229 25.1389 2.65555 23.6554C4.04269 21.3991 5.6061 19.1987 7.58391 17.4149C8.58554 16.5134 9.68882 15.7201 10.8996 15.1246C11.7573 14.7035 12.839 14.1249 13.8881 13.961L13.8906 13.9606Z" fill="white"/>
<path d="M13.8906 16.0394C14.2515 16.094 14.6113 16.1046 14.9541 16.0405C15.4191 15.9537 15.8752 15.6361 15.9788 15.175C16.0925 14.6639 15.7331 14.1404 15.2728 13.8904C14.3303 13.3818 12.9853 13.2794 11.9849 13.0237C8.86535 12.2262 6.75562 10.1223 5.59762 8.43995C4.80202 7.40974 4.19655 5.94912 3.97778 5.13498C3.62066 3.79748 3.24372 2.4544 2.62809 1.20406C1.87345 -0.337928 -0.30996 -0.580711 0.0370903 1.55421C0.325509 3.32718 1.74229 4.86112 2.65555 6.34464C4.04269 8.60087 5.6061 10.8013 7.5839 12.5851C8.58554 13.4866 9.68882 14.2799 10.8996 14.8754C11.7573 15.2965 12.839 15.8751 13.8881 16.039L13.8906 16.0394Z" fill="white"/>
</svg>
